<?xml version="1.0" encoding="UTF-8" standalone="no"?>
<svg
   xmlns:dc="http://purl.org/dc/elements/1.1/"
   xmlns:cc="http://creativecommons.org/ns#"
   xmlns:rdf="http://www.w3.org/1999/02/22-rdf-syntax-ns#"
   xmlns:svg="http://www.w3.org/2000/svg"
   xmlns="http://www.w3.org/2000/svg"
   xmlns:sodipodi="http://sodipodi.sourceforge.net/DTD/sodipodi-0.dtd"
   xmlns:inkscape="http://www.inkscape.org/namespaces/inkscape"
   viewBox="0 0 500 500"
   version="1.1"
   id="svg4"
   sodipodi:docname="box-archive-solid.svg"
   inkscape:version="0.92.5 (2060ec1f9f, 2020-04-08)">
  <metadata
     id="metadata10">
    <rdf:RDF>
      <cc:Work
         rdf:about="">
        <dc:format>image/svg+xml</dc:format>
        <dc:type
           rdf:resource="http://purl.org/dc/dcmitype/StillImage" />
        <dc:title></dc:title>
      </cc:Work>
    </rdf:RDF>
  </metadata>
  <defs
     id="defs8" />
  <sodipodi:namedview
     pagecolor="#ffffff"
     bordercolor="#666666"
     borderopacity="1"
     objecttolerance="10"
     gridtolerance="10"
     guidetolerance="10"
     inkscape:pageopacity="0"
     inkscape:pageshadow="2"
     inkscape:window-width="640"
     inkscape:window-height="480"
     id="namedview6"
     showgrid="false"
     inkscape:zoom="0.4609375"
     inkscape:cx="256"
     inkscape:cy="256"
     inkscape:window-x="0"
     inkscape:window-y="24"
     inkscape:window-maximized="0"
     inkscape:current-layer="svg4" />
  <!--! Font Awesome Pro 6.2.0 by @fontawesome - https://fontawesome.com License - https://fontawesome.com/license (Commercial License) Copyright 2022 Fonticons, Inc. -->
  <path
     d="M 47.762712,50.372882 H 450.20339 c 15.9,0 28.74576,12.845763 28.74576,28.745758 v 28.74577 c 0,15.9 -12.84576,28.74576 -28.74576,28.74576 H 47.762712 c -15.9,0 -28.745762,-12.84576 -28.745762,-28.74576 V 79.11864 c 0,-15.899995 12.845762,-28.745758 28.745762,-28.745758 z m 0,114.983048 H 450.20339 v 229.9661 c 0,31.71017 -25.78136,57.49153 -57.49153,57.49153 H 105.25423 c -31.710157,0 -57.491518,-25.78136 -57.491518,-57.49153 z m 114.983048,71.86441 c 0,7.90508 6.4678,14.37288 14.37288,14.37288 h 143.72882 c 7.90508,0 14.37288,-6.4678 14.37288,-14.37288 0,-7.90509 -6.4678,-14.37288 -14.37288,-14.37288 H 177.11864 c -7.90508,0 -14.37288,6.46779 -14.37288,14.37288 z"
     id="path2"
     inkscape:connector-curvature="0"
     style="stroke-width:0.89830506" />
</svg>
