<?xml version="1.0" encoding="UTF-8" standalone="no"?>
<svg
   xmlns:dc="http://purl.org/dc/elements/1.1/"
   xmlns:cc="http://creativecommons.org/ns#"
   xmlns:rdf="http://www.w3.org/1999/02/22-rdf-syntax-ns#"
   xmlns:svg="http://www.w3.org/2000/svg"
   xmlns="http://www.w3.org/2000/svg"
   xmlns:sodipodi="http://sodipodi.sourceforge.net/DTD/sodipodi-0.dtd"
   xmlns:inkscape="http://www.inkscape.org/namespaces/inkscape"
   viewBox="0 0 500 500"
   version="1.1"
   id="svg4"
   sodipodi:docname="envelope-solid.svg"
   inkscape:version="0.92.5 (2060ec1f9f, 2020-04-08)">
  <metadata
     id="metadata10">
    <rdf:RDF>
      <cc:Work
         rdf:about="">
        <dc:format>image/svg+xml</dc:format>
        <dc:type
           rdf:resource="http://purl.org/dc/dcmitype/StillImage" />
        <dc:title></dc:title>
      </cc:Work>
    </rdf:RDF>
  </metadata>
  <defs
     id="defs8" />
  <sodipodi:namedview
     pagecolor="#ffffff"
     bordercolor="#666666"
     borderopacity="1"
     objecttolerance="10"
     gridtolerance="10"
     guidetolerance="10"
     inkscape:pageopacity="0"
     inkscape:pageshadow="2"
     inkscape:window-width="640"
     inkscape:window-height="480"
     id="namedview6"
     showgrid="false"
     inkscape:zoom="0.4609375"
     inkscape:cx="256"
     inkscape:cy="256"
     inkscape:window-x="0"
     inkscape:window-y="24"
     inkscape:window-maximized="0"
     inkscape:current-layer="svg4" />
  <!--! Font Awesome Pro 6.2.0 by @fontawesome - https://fontawesome.com License - https://fontawesome.com/license (Commercial License) Copyright 2022 Fonticons, Inc. -->
  <path
     d="m 69.446328,96.77966 c -23.168786,0 -41.966102,18.79731 -41.966102,41.9661 0,13.20183 6.207485,25.6168 16.78644,33.57288 L 234.51299,315.00338 c 9.96695,7.4315 23.60593,7.4315 33.57288,0 L 458.3322,172.31864 c 10.57895,-7.95608 16.78644,-20.37105 16.78644,-33.57288 0,-23.16879 -18.79732,-41.9661 -41.9661,-41.9661 z m -41.966102,97.9209 v 181.85311 c 0,30.86257 25.092231,55.9548 55.954804,55.9548 h 335.72881 c 30.86257,0 55.9548,-25.09223 55.9548,-55.9548 V 194.70056 L 284.87232,337.38531 c -19.9339,14.95042 -47.21187,14.95042 -67.14577,0 z"
     id="path2"
     inkscape:connector-curvature="0"
     style="stroke-width:0.8742938" />
</svg>
