<?xml version="1.0" encoding="UTF-8" standalone="no"?>
<svg
   xmlns:dc="http://purl.org/dc/elements/1.1/"
   xmlns:cc="http://creativecommons.org/ns#"
   xmlns:rdf="http://www.w3.org/1999/02/22-rdf-syntax-ns#"
   xmlns:svg="http://www.w3.org/2000/svg"
   xmlns="http://www.w3.org/2000/svg"
   xmlns:sodipodi="http://sodipodi.sourceforge.net/DTD/sodipodi-0.dtd"
   xmlns:inkscape="http://www.inkscape.org/namespaces/inkscape"
   viewBox="0 0 500 500"
   version="1.1"
   id="svg4"
   sodipodi:docname="orcid.svg"
   inkscape:version="0.92.5 (2060ec1f9f, 2020-04-08)">
  <metadata
     id="metadata10">
    <rdf:RDF>
      <cc:Work
         rdf:about="">
        <dc:format>image/svg+xml</dc:format>
        <dc:type
           rdf:resource="http://purl.org/dc/dcmitype/StillImage" />
        <dc:title></dc:title>
      </cc:Work>
    </rdf:RDF>
  </metadata>
  <defs
     id="defs8" />
  <sodipodi:namedview
     pagecolor="#ffffff"
     bordercolor="#666666"
     borderopacity="1"
     objecttolerance="10"
     gridtolerance="10"
     guidetolerance="10"
     inkscape:pageopacity="0"
     inkscape:pageshadow="2"
     inkscape:window-width="640"
     inkscape:window-height="480"
     id="namedview6"
     showgrid="false"
     inkscape:zoom="0.4609375"
     inkscape:cx="256"
     inkscape:cy="256"
     inkscape:window-x="0"
     inkscape:window-y="24"
     inkscape:window-maximized="0"
     inkscape:current-layer="svg4" />
  <!--! Font Awesome Pro 6.2.0 by @fontawesome - https://fontawesome.com License - https://fontawesome.com/license (Commercial License) Copyright 2022 Fonticons, Inc. -->
  <path
     d="m 283.76695,189.4186 h -42.10379 v 141.02754 h 43.52498 c 62.0004,0 76.21227,-47.07336 76.21227,-70.51835 0,-38.17949 -24.33438,-70.50919 -77.63346,-70.50919 z M 248.23729,24.20339 c -125.61454,0 -227.389832,101.77529 -227.389832,227.38983 0,125.61454 101.775292,227.38983 227.389832,227.38983 125.61454,0 227.38983,-101.77529 227.38983,-227.38983 0,-125.61454 -101.77529,-227.38983 -227.38983,-227.38983 z m -74.07591,330.77885 h -27.36013 v -190.2556 h 27.36013 z M 160.48132,143.05125 a 17.943625,17.943625 0 1 1 17.94362,-17.94362 18.007808,18.007808 0 0 1 -17.94362,17.94362 z M 288.58065,355.2023 H 214.31219 V 164.72664 h 73.9017 c 70.35331,0 101.26182,50.27332 101.26182,95.21949 -0.0367,48.85214 -38.19782,95.25617 -100.89506,95.25617 z"
     id="path2"
     inkscape:connector-curvature="0"
     style="stroke-width:0.9168945" />
</svg>
